<?xml version="1.0" encoding="UTF-8" standalone="no"?><!DOCTYPE svg PUBLIC "-//W3C//DTD SVG 1.1//EN" "http://www.w3.org/Graphics/SVG/1.1/DTD/svg11.dtd"><svg width="100%" height="100%" viewBox="0 0 3508 1000" version="1.1" xmlns="http://www.w3.org/2000/svg" xmlns:xlink="http://www.w3.org/1999/xlink" xml:space="preserve" xmlns:serif="http://www.serif.com/" style="fill-rule:evenodd;clip-rule:evenodd;stroke-linejoin:round;stroke-miterlimit:1.41421;"><g><g><path d="M930.74,888.175c0,0 -359.452,27.488 -528.431,-391.768c-168.98,-419.256 -364.436,-382.657 -364.436,-382.657c0,0 325.796,-62.228 528.432,382.657c0,0 117.603,328.247 364.435,391.768Z" style="fill:#6fafd5;"/><path d="M1149.39,888.175c0,0 -359.452,27.488 -528.432,-391.768c-168.98,-419.256 -364.436,-382.657 -364.436,-382.657c0,0 325.796,-62.228 528.432,382.657c0,0 117.603,328.247 364.436,391.768Z" style="fill:#007fbc;"/><path d="M1386.28,888.175c0,0 -359.452,27.488 -528.432,-391.768c-168.979,-419.256 -364.435,-382.657 -364.435,-382.657c0,0 325.796,-62.228 528.432,382.657c0,0 117.603,328.247 364.435,391.768Z" style="fill:#174674;"/></g><g><path d="M1900.59,389.048c0,56.77 -11.224,106.697 -33.673,149.783c-22.45,43.094 -54.575,76.057 -96.366,98.889c-41.801,22.832 -90.572,34.257 -146.303,34.257c-85.661,0 -152.817,-25.228 -201.451,-75.666c-48.643,-50.447 -72.96,-119.534 -72.96,-207.263c0,-87.465 24.253,-155.714 72.769,-204.74c48.506,-49.026 115.981,-73.534 202.416,-73.534c86.435,0 153.974,24.772 202.608,74.308c48.643,49.545 72.96,117.531 72.96,203.966Zm-116.501,0c0,-58.829 -13.93,-104.949 -41.8,-138.358c-27.861,-33.419 -66.956,-50.128 -117.267,-50.128c-51.094,0 -90.571,16.582 -118.432,49.736c-27.87,33.155 -41.801,79.411 -41.801,138.75c0,59.867 14.259,107.016 42.767,141.465c28.508,34.448 67.411,51.667 116.692,51.667c51.085,0 90.498,-16.773 118.241,-50.31c27.734,-33.546 41.6,-81.151 41.6,-142.822Z" style="fill:#1c437c;fill-rule:nonzero;"/><path d="M1986.9,664.233l0,-545.332l114.178,0l0,457.084l292.596,0l0,88.248l-406.774,0Z" style="fill:#1c437c;fill-rule:nonzero;"/><path d="M2471.08,664.233l0,-545.332l428.841,0l0,88.248l-314.663,0l0,137.009l291.047,0l0,88.239l-291.047,0l0,143.588l330.525,0l0,88.248l-444.703,0Z" style="fill:#1c437c;fill-rule:nonzero;"/><path d="M3348.49,664.233l-137.01,-217.131l-137.01,217.131l-120.756,0l188.878,-286.792l-173.006,-258.54l120.755,0l121.139,192.741l121.147,-192.741l119.982,0l-165.654,258.54l181.516,286.792l-119.981,0Z" style="fill:#1c437c;fill-rule:nonzero;"/></g><g><path d="M1468.56,830.306l-36.015,-46.056l-12.382,9.475l0,36.581l-21,0l0,-100.293l21,0l0,45.491l45.2,-45.491l24.48,0l-42.848,42.429l46.338,57.864l-24.773,0Z" style="fill:#1c437c;fill-rule:nonzero;"/><path d="M1497.15,830.306l0,-100.293l21.001,0l0,84.066l53.809,0l0,16.227l-74.81,0Z" style="fill:#1c437c;fill-rule:nonzero;"/><rect x="1578.91" y="730.013" width="21.001" height="100.293" style="fill:#1c437c;"/><path d="M1695.4,830.306l0,-60.788c0,-1.376 0.019,-2.752 0.037,-4.127c0.027,-1.376 0.255,-7.28 0.674,-17.721c-3.362,12.764 -5.858,21.657 -7.471,26.695l-18.076,55.941l-14.951,0l-18.076,-55.941l-7.617,-26.695c0.565,11.006 0.857,18.295 0.857,21.848l0,60.788l-18.65,0l0,-100.293l28.116,0l17.93,56.096l1.567,5.403l3.417,13.456l4.482,-16.09l18.441,-58.865l27.97,0l0,100.293l-18.65,0Z" style="fill:#1c437c;fill-rule:nonzero;"/><path d="M1797.16,830.306l-8.901,-25.62l-38.221,0l-8.892,25.62l-21,0l36.589,-100.293l24.763,0l36.444,100.293l-20.782,0Zm-28.043,-84.841l-0.429,1.567c-0.473,1.704 -1.047,3.654 -1.703,5.831c-0.665,2.187 -4.747,14.186 -12.245,36.015l28.826,0l-9.894,-28.826l-3.061,-9.676l-1.494,-4.911Z" style="fill:#1c437c;fill-rule:nonzero;"/><path d="M1858.7,746.249l0,84.057l-21.001,0l0,-84.057l-32.389,0l0,-16.236l85.843,0l0,16.236l-32.453,0Z" style="fill:#1c437c;fill-rule:nonzero;"/><path d="M1944.58,789.17l0,41.136l-20.927,0l0,-41.136l-35.724,-59.157l21.993,0l24.053,42.429l24.345,-42.429l21.993,0l-35.733,59.157Z" style="fill:#1c437c;fill-rule:nonzero;"/><path d="M2060.22,830.306l-80.495,0l0,-14.878l54.237,-68.97l-48.834,0l0,-16.445l72.176,0l0,14.596l-54.237,69.252l57.153,0l0,16.445Z" style="fill:#1c437c;fill-rule:nonzero;"/><path d="M2137.78,830.306l-8.902,-25.62l-38.22,0l-8.892,25.62l-21.001,0l36.581,-100.293l24.772,0l36.444,100.293l-20.782,0Zm-28.044,-84.841l-0.428,1.567c-0.474,1.704 -1.047,3.654 -1.713,5.831c-0.656,2.187 -4.737,14.186 -12.236,36.015l28.827,0l-9.894,-28.826l-3.061,-9.676l-1.495,-4.911Z" style="fill:#1c437c;fill-rule:nonzero;"/><path d="M2211.7,815.218c12.673,0 21.474,-6.359 26.403,-19.078l18.295,6.906c-3.936,9.676 -9.713,16.882 -17.329,21.602c-7.617,4.719 -16.737,7.079 -27.369,7.079c-16.136,0 -28.6,-4.565 -37.401,-13.694c-8.81,-9.138 -13.21,-21.911 -13.21,-38.338c0,-16.464 4.245,-29.11 12.746,-37.938c8.491,-8.819 20.809,-13.238 36.935,-13.238c11.772,0 21.356,2.36 28.763,7.088c7.398,4.72 12.601,11.662 15.589,20.818l-18.513,5.048c-1.558,-5.029 -4.638,-9.02 -9.211,-11.99c-4.583,-2.961 -9.977,-4.446 -16.2,-4.446c-9.484,0 -16.691,2.943 -21.601,8.828c-4.911,5.877 -7.362,14.496 -7.362,25.83c0,11.534 2.524,20.335 7.58,26.412c5.048,6.077 12.345,9.111 21.885,9.111Z" style="fill:#1c437c;fill-rule:nonzero;"/><path d="M2290.4,831.727c-10.395,0 -18.376,-2.25 -23.952,-6.76c-5.576,-4.51 -9.293,-11.79 -11.143,-21.848l20.855,-3.061c0.857,5.175 2.442,9.001 4.765,11.497c2.333,2.488 5.53,3.736 9.612,3.736c4.173,0 7.344,-1.403 9.503,-4.2c2.159,-2.797 3.243,-6.815 3.243,-12.036l0,-52.597l-20.007,0l0,-16.445l40.926,0l0,68.55c0,10.441 -2.961,18.577 -8.892,24.408c-5.932,5.84 -14.241,8.756 -24.91,8.756Z" style="fill:#1c437c;fill-rule:nonzero;"/><path d="M2407.53,830.306l-8.901,-25.62l-38.22,0l-8.902,25.62l-20.991,0l36.58,-100.293l24.773,0l36.443,100.293l-20.782,0Zm-28.043,-84.841l-0.428,1.567c-0.474,1.704 -1.048,3.654 -1.713,5.831c-0.665,2.187 -4.747,14.186 -12.236,36.015l28.827,0l-9.895,-28.826l-3.061,-9.676l-1.494,-4.911Z" style="fill:#1c437c;fill-rule:nonzero;"/><rect x="2458.36" y="783.831" width="37.018" height="17.365" style="fill:#1c437c;"/><path d="M2638.68,830.306l-24.91,0l-13.593,-58.009c-1.667,-6.834 -3.061,-13.976 -4.2,-21.429c-1.139,6.223 -2.068,10.951 -2.779,14.204c-0.711,3.252 -5.767,25 -15.161,65.234l-24.918,0l-25.829,-100.293l21.274,0l14.522,64.778l3.28,15.653c1.321,-6.587 2.615,-12.892 3.872,-18.896c1.258,-6.004 5.995,-26.513 14.204,-61.535l23.488,0l12.673,53.39c0.994,3.981 2.679,13.001 5.048,27.041l1.786,-8.255l3.772,-16.372l12.099,-55.804l21.283,0l-25.911,100.293Z" style="fill:#1c437c;fill-rule:nonzero;"/><path d="M2667.19,830.306l0,-100.293l78.864,0l0,16.236l-57.873,0l0,25.191l53.527,0l0,16.227l-53.527,0l0,26.412l60.788,0l0,16.227l-81.779,0Z" style="fill:#1c437c;fill-rule:nonzero;"/><path d="M2818.21,830.306l-43.705,-77.224c0.856,7.498 1.284,13.52 1.284,18.076l0,59.148l-18.65,0l0,-100.293l23.98,0l44.352,77.871c-0.856,-7.161 -1.285,-13.685 -1.285,-19.57l0,-58.301l18.65,0l0,100.293l-24.626,0Z" style="fill:#1c437c;fill-rule:nonzero;"/><path d="M2900.39,746.249l0,84.057l-21.001,0l0,-84.057l-32.38,0l0,-16.236l85.843,0l0,16.236l-32.462,0Z" style="fill:#1c437c;fill-rule:nonzero;"/><path d="M2986.28,789.17l0,41.136l-20.927,0l0,-41.136l-35.733,-59.157l21.993,0l24.062,42.429l24.335,-42.429l22.003,0l-35.733,59.157Z" style="fill:#1c437c;fill-rule:nonzero;"/><path d="M3026.82,830.306l0,-100.293l20.991,0l0,84.066l53.818,0l0,16.227l-74.809,0Z" style="fill:#1c437c;fill-rule:nonzero;"/><path d="M3179.46,830.306l-8.893,-25.62l-38.229,0l-8.892,25.62l-21.001,0l36.59,-100.293l24.772,0l36.444,100.293l-20.791,0Zm-28.044,-84.841l-0.428,1.567c-0.474,1.704 -1.038,3.654 -1.704,5.831c-0.665,2.187 -4.746,14.186 -12.245,36.015l28.827,0l-9.894,-28.826l-3.061,-9.676l-1.495,-4.911Z" style="fill:#1c437c;fill-rule:nonzero;"/><path d="M3253.39,815.218c12.673,0 21.474,-6.359 26.412,-19.078l18.295,6.906c-3.945,9.676 -9.722,16.882 -17.338,21.602c-7.617,4.719 -16.737,7.079 -27.369,7.079c-16.127,0 -28.6,-4.565 -37.401,-13.694c-8.801,-9.138 -13.201,-21.911 -13.201,-38.338c0,-16.464 4.245,-29.11 12.737,-37.938c8.491,-8.819 20.809,-13.238 36.944,-13.238c11.772,0 21.356,2.36 28.754,7.088c7.407,4.72 12.601,11.662 15.589,20.818l-18.504,5.048c-1.567,-5.029 -4.638,-9.02 -9.22,-11.99c-4.583,-2.961 -9.977,-4.446 -16.19,-4.446c-9.494,0 -16.692,2.943 -21.602,8.828c-4.911,5.877 -7.371,14.496 -7.371,25.83c0,11.534 2.524,20.335 7.58,26.412c5.057,6.077 12.355,9.111 21.885,9.111Z" style="fill:#1c437c;fill-rule:nonzero;"/><path d="M3332.09,831.727c-10.395,0 -18.376,-2.25 -23.952,-6.76c-5.576,-4.51 -9.293,-11.79 -11.143,-21.848l20.855,-3.061c0.857,5.175 2.451,9.001 4.774,11.497c2.323,2.488 5.53,3.736 9.612,3.736c4.173,0 7.344,-1.403 9.503,-4.2c2.15,-2.797 3.234,-6.815 3.234,-12.036l0,-52.597l-19.998,0l0,-16.445l40.926,0l0,68.55c0,10.441 -2.97,18.577 -8.901,24.408c-5.932,5.84 -14.232,8.756 -24.91,8.756Z" style="fill:#1c437c;fill-rule:nonzero;"/><path d="M3449.22,830.306l-8.892,-25.62l-38.229,0l-8.893,25.62l-21,0l36.589,-100.293l24.763,0l36.444,100.293l-20.782,0Zm-28.043,-84.841l-0.428,1.567c-0.474,1.704 -1.039,3.654 -1.704,5.831c-0.665,2.187 -4.747,14.186 -12.245,36.015l28.827,0l-9.895,-28.826l-3.061,-9.676l-1.494,-4.911Z" style="fill:#1c437c;fill-rule:nonzero;"/></g></g></svg>