<?xml version="1.0" encoding="UTF-8" standalone="no"?>
<!DOCTYPE svg PUBLIC "-//W3C//DTD SVG 1.1//EN" "http://www.w3.org/Graphics/SVG/1.1/DTD/svg11.dtd">
<svg width="100%" height="100%" viewBox="0 0 3508 2481" version="1.1" xmlns="http://www.w3.org/2000/svg" xmlns:xlink="http://www.w3.org/1999/xlink" xml:space="preserve" xmlns:serif="http://www.serif.com/" style="fill-rule:evenodd;clip-rule:evenodd;stroke-linejoin:round;stroke-miterlimit:1.41421;">
    <g transform="matrix(13.8022,0,0,9.69248,-6962.38,-2964.7)">
        <g transform="matrix(1,0,0,1,5.58317,-11.4904)">
            <g transform="matrix(0.507561,0,0,0.722772,508,367)">
                <path d="M142,151C142,151 102.547,154.017 84,108C65.453,61.983 44,66 44,66C44,66 79.759,59.17 102,108C102,108 114.908,144.028 142,151Z" style="fill:rgb(111,175,213);"/>
            </g>
            <g transform="matrix(0.507561,0,0,0.722772,520.181,367)">
                <path d="M142,151C142,151 102.547,154.017 84,108C65.453,61.983 44,66 44,66C44,66 79.759,59.17 102,108C102,108 114.908,144.028 142,151Z" style="fill:rgb(0,127,188);"/>
            </g>
            <g transform="matrix(0.507561,0,0,0.722772,533.378,367)">
                <path d="M142,151C142,151 102.547,154.017 84,108C65.453,61.983 44,66 44,66C44,66 79.759,59.17 102,108C102,108 114.908,144.028 142,151Z" style="fill:rgb(23,70,116);"/>
            </g>
        </g>
        <g transform="matrix(0.507561,0,0,0.722772,504.191,378.395)">
            <path d="M266.954,64.553C266.954,70.784 265.722,76.264 263.258,80.993C260.794,85.723 257.268,89.341 252.681,91.847C248.093,94.353 242.74,95.607 236.623,95.607C227.221,95.607 219.85,92.838 214.512,87.302C209.173,81.765 206.504,74.182 206.504,64.553C206.504,54.953 209.166,47.462 214.491,42.081C219.815,36.7 227.221,34.01 236.708,34.01C246.195,34.01 253.608,36.729 258.946,42.166C264.285,47.604 266.954,55.066 266.954,64.553ZM254.167,64.553C254.167,58.096 252.638,53.034 249.579,49.367C246.521,45.699 242.23,43.865 236.708,43.865C231.1,43.865 226.767,45.685 223.709,49.324C220.65,52.963 219.121,58.04 219.121,64.553C219.121,71.124 220.686,76.299 223.815,80.08C226.944,83.861 231.214,85.751 236.623,85.751C242.23,85.751 246.556,83.91 249.601,80.229C252.645,76.547 254.167,71.322 254.167,64.553Z" style="fill:rgb(28,67,124);fill-rule:nonzero;"/>
            <path d="M276.427,94.757L276.427,34.902L288.959,34.902L288.959,85.071L321.074,85.071L321.074,94.757L276.427,94.757Z" style="fill:rgb(28,67,124);fill-rule:nonzero;"/>
            <path d="M329.57,94.757L329.57,34.902L376.639,34.902L376.639,44.588L342.102,44.588L342.102,59.626L374.047,59.626L374.047,69.311L342.102,69.311L342.102,85.071L378.38,85.071L378.38,94.757L329.57,94.757Z" style="fill:rgb(28,67,124);fill-rule:nonzero;"/>
            <path d="M425.873,94.757L410.835,70.925L395.797,94.757L382.543,94.757L403.274,63.279L384.285,34.902L397.539,34.902L410.835,56.057L424.132,34.902L437.301,34.902L419.119,63.279L439.042,94.757L425.873,94.757Z" style="fill:rgb(28,67,124);fill-rule:nonzero;"/>
        </g>
        <g transform="matrix(0.507561,0,0,0.722772,504.111,360.562)">
            <path d="M219.693,137.658L215.74,132.603L214.381,133.643L214.381,137.658L212.076,137.658L212.076,126.65L214.381,126.65L214.381,131.643L219.342,126.65L222.029,126.65L217.326,131.307L222.412,137.658L219.693,137.658Z" style="fill:rgb(28,67,124);fill-rule:nonzero;"/>
            <path d="M222.831,137.658L222.831,126.65L225.136,126.65L225.136,135.877L231.042,135.877L231.042,137.658L222.831,137.658Z" style="fill:rgb(28,67,124);fill-rule:nonzero;"/>
            <rect x="231.804" y="126.65" width="2.305" height="11.008" style="fill:rgb(28,67,124);fill-rule:nonzero;"/>
            <path d="M244.59,137.658L244.59,130.986C244.59,130.835 244.592,130.684 244.594,130.533C244.597,130.382 244.622,129.734 244.668,128.588C244.299,129.989 244.025,130.965 243.848,131.518L241.864,137.658L240.223,137.658L238.239,131.518L237.403,128.588C237.465,129.796 237.497,130.596 237.497,130.986L237.497,137.658L235.45,137.658L235.45,126.65L238.536,126.65L240.504,132.807L240.676,133.4L241.051,134.877L241.543,133.111L243.567,126.65L246.637,126.65L246.637,137.658L244.59,137.658Z" style="fill:rgb(28,67,124);fill-rule:nonzero;"/>
            <path d="M255.759,137.658L254.782,134.846L250.587,134.846L249.611,137.658L247.306,137.658L251.322,126.65L254.04,126.65L258.04,137.658L255.759,137.658ZM252.681,128.346L252.634,128.518C252.582,128.705 252.519,128.919 252.447,129.158C252.374,129.398 251.926,130.715 251.103,133.111L254.267,133.111L253.181,129.947L252.845,128.885L252.681,128.346Z" style="fill:rgb(28,67,124);fill-rule:nonzero;"/>
            <path d="M262.514,128.432L262.514,137.658L260.209,137.658L260.209,128.432L256.654,128.432L256.654,126.65L266.076,126.65L266.076,128.432L262.514,128.432Z" style="fill:rgb(28,67,124);fill-rule:nonzero;"/>
            <path d="M271.94,133.143L271.94,137.658L269.643,137.658L269.643,133.143L265.722,126.65L268.136,126.65L270.776,131.307L273.448,126.65L275.862,126.65L271.94,133.143Z" style="fill:rgb(28,67,124);fill-rule:nonzero;"/>
            <path d="M284.632,137.658L275.797,137.658L275.797,136.025L281.75,128.455L276.39,128.455L276.39,126.65L284.312,126.65L284.312,128.252L278.359,135.853L284.632,135.853L284.632,137.658Z" style="fill:rgb(28,67,124);fill-rule:nonzero;"/>
            <path d="M293.145,137.658L292.168,134.846L287.973,134.846L286.997,137.658L284.692,137.658L288.707,126.65L291.426,126.65L295.426,137.658L293.145,137.658ZM290.067,128.346L290.02,128.518C289.968,128.705 289.905,128.919 289.832,129.158C289.76,129.398 289.312,130.715 288.489,133.111L291.653,133.111L290.567,129.947L290.231,128.885L290.067,128.346Z" style="fill:rgb(28,67,124);fill-rule:nonzero;"/>
            <path d="M301.259,136.002C302.65,136.002 303.616,135.304 304.157,133.908L306.165,134.666C305.733,135.728 305.099,136.519 304.263,137.037C303.427,137.555 302.426,137.814 301.259,137.814C299.488,137.814 298.12,137.313 297.154,136.311C296.187,135.308 295.704,133.906 295.704,132.103C295.704,130.296 296.17,128.908 297.103,127.939C298.035,126.971 299.387,126.486 301.157,126.486C302.449,126.486 303.501,126.745 304.314,127.264C305.126,127.782 305.697,128.544 306.025,129.549L303.993,130.103C303.822,129.551 303.484,129.113 302.982,128.787C302.479,128.462 301.887,128.299 301.204,128.299C300.163,128.299 299.372,128.622 298.833,129.268C298.294,129.913 298.025,130.859 298.025,132.103C298.025,133.369 298.302,134.335 298.857,135.002C299.411,135.669 300.212,136.002 301.259,136.002Z" style="fill:rgb(28,67,124);fill-rule:nonzero;"/>
            <path d="M309.897,137.814C308.756,137.814 307.88,137.567 307.268,137.072C306.656,136.577 306.248,135.778 306.045,134.674L308.334,134.338C308.428,134.906 308.602,135.326 308.857,135.6C309.113,135.873 309.464,136.01 309.912,136.01C310.37,136.01 310.718,135.856 310.955,135.549C311.192,135.242 311.311,134.801 311.311,134.228L311.311,128.455L309.115,128.455L309.115,126.65L313.607,126.65L313.607,134.174C313.607,135.32 313.282,136.213 312.631,136.853C311.98,137.494 311.068,137.814 309.897,137.814Z" style="fill:rgb(28,67,124);fill-rule:nonzero;"/>
            <path d="M322.753,137.658L321.776,134.846L317.581,134.846L316.604,137.658L314.3,137.658L318.315,126.65L321.034,126.65L325.034,137.658L322.753,137.658ZM319.675,128.346L319.628,128.518C319.576,128.705 319.513,128.919 319.44,129.158C319.367,129.398 318.919,130.715 318.097,133.111L321.261,133.111L320.175,129.947L319.839,128.885L319.675,128.346Z" style="fill:rgb(28,67,124);fill-rule:nonzero;"/>
            <rect x="328.332" y="132.557" width="4.063" height="1.906" style="fill:rgb(28,67,124);fill-rule:nonzero;"/>
            <path d="M348.123,137.658L345.389,137.658L343.897,131.291C343.714,130.541 343.561,129.757 343.436,128.939C343.311,129.622 343.209,130.141 343.131,130.498C343.053,130.855 342.498,133.242 341.467,137.658L338.732,137.658L335.897,126.65L338.232,126.65L339.826,133.76L340.186,135.478C340.331,134.755 340.473,134.063 340.611,133.404C340.749,132.745 341.269,130.494 342.17,126.65L344.748,126.65L346.139,132.51C346.248,132.947 346.433,133.937 346.693,135.478L346.889,134.572L347.303,132.775L348.631,126.65L350.967,126.65L348.123,137.658Z" style="fill:rgb(28,67,124);fill-rule:nonzero;"/>
            <path d="M351.253,137.658L351.253,126.65L359.909,126.65L359.909,128.432L353.557,128.432L353.557,131.197L359.432,131.197L359.432,132.978L353.557,132.978L353.557,135.877L360.229,135.877L360.229,137.658L351.253,137.658Z" style="fill:rgb(28,67,124);fill-rule:nonzero;"/>
            <path d="M367.828,137.658L363.031,129.182C363.125,130.005 363.172,130.666 363.172,131.166L363.172,137.658L361.125,137.658L361.125,126.65L363.757,126.65L368.625,135.197C368.531,134.411 368.484,133.695 368.484,133.049L368.484,126.65L370.531,126.65L370.531,137.658L367.828,137.658Z" style="fill:rgb(28,67,124);fill-rule:nonzero;"/>
            <path d="M376.848,128.432L376.848,137.658L374.543,137.658L374.543,128.432L370.989,128.432L370.989,126.65L380.411,126.65L380.411,128.432L376.848,128.432Z" style="fill:rgb(28,67,124);fill-rule:nonzero;"/>
            <path d="M386.275,133.143L386.275,137.658L383.978,137.658L383.978,133.143L380.056,126.65L382.47,126.65L385.111,131.307L387.782,126.65L390.197,126.65L386.275,133.143Z" style="fill:rgb(28,67,124);fill-rule:nonzero;"/>
            <path d="M390.725,137.658L390.725,126.65L393.029,126.65L393.029,135.877L398.936,135.877L398.936,137.658L390.725,137.658Z" style="fill:rgb(28,67,124);fill-rule:nonzero;"/>
            <path d="M407.479,137.658L406.503,134.846L402.307,134.846L401.331,137.658L399.026,137.658L403.042,126.65L405.761,126.65L409.761,137.658L407.479,137.658ZM404.401,128.346L404.354,128.518C404.302,128.705 404.24,128.919 404.167,129.158C404.094,129.398 403.646,130.715 402.823,133.111L405.987,133.111L404.901,129.947L404.565,128.885L404.401,128.346Z" style="fill:rgb(28,67,124);fill-rule:nonzero;"/>
            <path d="M415.593,136.002C416.984,136.002 417.95,135.304 418.492,133.908L420.5,134.666C420.067,135.728 419.433,136.519 418.597,137.037C417.761,137.555 416.76,137.814 415.593,137.814C413.823,137.814 412.454,137.313 411.488,136.311C410.522,135.308 410.039,133.906 410.039,132.103C410.039,130.296 410.505,128.908 411.437,127.939C412.369,126.971 413.721,126.486 415.492,126.486C416.784,126.486 417.836,126.745 418.648,127.264C419.461,127.782 420.031,128.544 420.359,129.549L418.328,130.103C418.156,129.551 417.819,129.113 417.316,128.787C416.813,128.462 416.221,128.299 415.539,128.299C414.497,128.299 413.707,128.622 413.168,129.268C412.629,129.913 412.359,130.859 412.359,132.103C412.359,133.369 412.636,134.335 413.191,135.002C413.746,135.669 414.547,136.002 415.593,136.002Z" style="fill:rgb(28,67,124);fill-rule:nonzero;"/>
            <path d="M424.231,137.814C423.09,137.814 422.214,137.567 421.602,137.072C420.99,136.577 420.582,135.778 420.379,134.674L422.668,134.338C422.762,134.906 422.937,135.326 423.192,135.6C423.447,135.873 423.799,136.01 424.247,136.01C424.705,136.01 425.053,135.856 425.29,135.549C425.526,135.242 425.645,134.801 425.645,134.228L425.645,128.455L423.45,128.455L423.45,126.65L427.942,126.65L427.942,134.174C427.942,135.32 427.616,136.213 426.965,136.853C426.314,137.494 425.403,137.814 424.231,137.814Z" style="fill:rgb(28,67,124);fill-rule:nonzero;"/>
            <path d="M437.087,137.658L436.111,134.846L431.915,134.846L430.939,137.658L428.634,137.658L432.65,126.65L435.368,126.65L439.368,137.658L437.087,137.658ZM434.009,128.346L433.962,128.518C433.91,128.705 433.848,128.919 433.775,129.158C433.702,129.398 433.254,130.715 432.431,133.111L435.595,133.111L434.509,129.947L434.173,128.885L434.009,128.346Z" style="fill:rgb(28,67,124);fill-rule:nonzero;"/>
        </g>
    </g>
</svg>
